<svg version="1.1" id="Layer_1" xmlns="http://www.w3.org/2000/svg" x="0" y="0" width="512" height="512" viewBox="0 0 512 512" enable-background="new 0 0 512 512" xml:space="preserve"><path id="R_mark" fill="#020202" d="M377.21 410.42c5.8 0 10.77 4.51 10.77 10.62 0 6.17-4.97 10.68-10.77 10.68 -5.86 0-10.83-4.5-10.83-10.68C366.38 414.92 371.35 410.42 377.21 410.42zM377.21 412.14c-4.94 0-8.76 3.82-8.76 8.9 0 5.2 3.82 8.96 8.76 8.96 4.88 0 8.7-3.76 8.7-8.96C385.9 415.96 382.09 412.14 377.21 412.14zM374.94 427.21h-1.89v-12.29h4.71c2.93 0 4.36 1.09 4.36 3.5 0 2.22-1.38 3.16-3.22 3.39l3.51 5.4h-2.06l-3.27-5.34h-2.13L374.94 427.21 374.94 427.21 374.94 427.21zM374.94 420.32h2.24c2.3 0 3.04-0.66 3.04-2.01 0-1.17-0.57-1.84-2.73-1.84h-2.56V420.32L374.94 420.32z"/><path id="green_b" fill="#0A7756" d="M74.3 257.04c0-100.79 81.71-182.51 182.51-182.51 100.8 0 182.51 81.72 182.51 182.51 0 100.8-81.71 182.51-182.5 182.51C156 439.55 74.3 357.84 74.3 257.04"/><path id="white_b" fill="#FFFFFF" d="M79.68 257.04c0-97.82 79.3-177.12 177.13-177.12 97.82 0 177.13 79.3 177.13 177.12 0 97.82-79.31 177.13-177.13 177.13C158.98 434.17 79.68 354.86 79.68 257.04"/><path id="mid" fill="#0A7756" d="M85.45 257.04c0-94.64 76.72-171.35 171.36-171.35 94.64 0 171.36 76.72 171.36 171.35 0 94.64-76.72 171.35-171.36 171.35C162.16 428.4 85.45 351.68 85.45 257.04"/><path id="STARBUCKS" fill="#FFFFFF" d="M305.21 106.3c-3.04 8.79-7.04 17.47-9.2 26.74 -0.22 2.31 1.15 4.68 3.79 5.34 1.82 1 4.42 1.19 5.78 0 5.86-8.23 8.65-18.47 12.32-27.7 4.67 1.64 8.31 3.97 12.84 5.68 -4.83 10.24-7.8 22.29-14.47 30.71 -4.82 4.23-12.46 3.19-18.24 1.78 -6.6-2.37-13.79-6.6-15.8-14.02 -1.55-5.08 5.49-22.51 9.34-32.93L305.21 106.3M224.29 126.89c1.62-2 2.23-4.46 2.89-6.9 -0.07-3.78-0.44-7.93-3.11-10.9 -10.53-10.87-27.59 0.81-39.38 5.56 4.66 11.76 10.95 26.4 16.09 38.94l12.53-6.82 -4.6-10.54c1.67-0.74 2.9-1.79 4.68-2 4.13 2.83 6.82 5.52 11.57 9.34l13.35-2.95 0.56-0.19C234.35 136.14 227.81 131.22 224.29 126.89zM211.77 123.88l-7.34 3.11c-1.83-3.37-2.61-5.68-3.87-8.41 3.41-1.26 9.26-6.38 12.01-0.67C213.31 119.76 213.35 122.78 211.77 123.88zM278.21 125.92c-0.44-3.85-3.34-6.08-6.23-8.23 2.38-1.86 3.86-4.45 4.68-7.12 0.15-3.78-0.67-7.19-3.56-9.78 -10.09-4.98-23.43-2.04-34.78-1.97l0.07 0.86 1.77 39.15 0.12 1.57 17.24-0.45c6.53-0.22 13.73 1.11 18.25-4C277.91 133.11 279.03 129.7 278.21 125.92zM252.77 106.56c2.52 0.37 6.91-0.9 8.76 1.11 1.03 1.11 0.82 3.41 0.22 4.67 -1.92 2.23-5.48 2.15-8.45 1.78C253.51 111.61 252.58 109.15 252.77 106.56zM260.85 130.38c-2.37 0.36-4.15 0.14-6.67 0.22 -0.37-2.67-0.59-6.23-0.37-8.46 3.41 0.45 8.54-1.41 10.16 2.45C264.56 127.18 263.38 129.85 260.85 130.38zM364.1 139.05c2.52 3.11 4.24 6.97 5.35 10.9 -3.12 1.68-5.49 3.57-8.46 4.9 -0.73-4.6-3.26-9.27-7.78-11.57 -2.15-1.26-5.35-1.48-7.79-0.67 -3.79 1.41-7.04 4.67-8.45 8.46 -1.26 3.63 0.14 7.19 2.23 10.01 2.89 3.27 6.75 4.98 11.12 5.12 -1.96 3.23-3.03 5.27-4.89 7.79 -7.27-1.04-14.1-5.05-18.25-11.79 -3.56-5.7-3.78-14.46-0.66-20.47 3.26-6.61 9.72-10.83 16.68-11.8C351.57 129.63 359.13 132.97 364.1 139.05M162.28 130.82l-1.26-0.78 -15.65 13.47 17.14 40.72 0.78 1.71 9.68-10.82c-1.19-2.97-2.61-6.23-3.72-8.9l10.84-9.12c2.67 1.22 4.8 2.52 8.45 4.45l9.79-6.45 1.28-0.85C187.18 147.15 174.56 138.32 162.28 130.82zM164.74 156.84c-1.78-4.23-3.49-8.01-5.34-12.68 4.26 2.27 8 4.9 12.01 7.35C169.41 153.36 167.18 155.14 164.74 156.84zM386.35 165.3c-3.41 3.41-7.93 6.31-11.57 9.57 5.79 1.26 12.31 1.03 18.25 2 2.67 3.86 4.08 7.57 6.68 12.24l-21.8-1.55c-4.82 7.56-9.2 15.27-13.35 23.14 -2.59-3.78-4.59-8.67-7.12-12.9 2.82-5.71 6.49-11.76 9.32-17.48 -4.86 3.01-9.12 6.9-14.06 10.01l-7.71-10.35c10.39-8.9 21.58-16.84 32.49-24.91l0.88-0.32L386.35 165.3M141.52 162.56c-1.97 4.08-4.57 6.86-6.38 10.75l25.36 16.69c-1.34 3.78-4.23 7.49-6.68 11.12l-26.03-16.24c-2.33 3.08-4.01 6.23-6.34 10.16 -3.41-2.26-5.82-3.75-8.56-5.71 6.46-10.76 12.58-20.85 19.69-32.01L141.52 162.56M117.56 203.13c-4.6 3.57-7.86 8.76-6.9 14.69 0.52 0.89 1.04 2.22 2.23 2.44 3.71 0 4.97-4 6.67-6.45 2.01-4.45 5.87-9.27 11.13-9.79 4.52-0.3 8.39 0.89 11.35 4.45 4.52 5.42 3.71 14.17 1.56 20.48 -2.01 4.67-5.12 9.41-9.57 12.46l-8.01-4.9c4.38-3.04 8.98-8.01 9.57-13.57 0-2-0.44-4.67-2.9-4.9 -5.11 1.49-5.63 7.64-9.12 11.13 -2.67 2.75-6.01 4.82-10.24 4.22 -3.93-0.23-7.27-2.67-9.57-5.78 -4.38-6.67-2.23-16.47 0.44-21.58 1.64-2.9 3.57-5.78 6.24-8.02C112.66 199.27 115.26 201.21 117.56 203.13M408.16 208.92c3.85 6.23 5.35 14.46 3.34 22.03l-8.23-0.44c1.12-4.97 1.93-11.2-1.56-15.35 -1.04-1.26-2.89-2.01-4.23-1.34 -4.52 5.04 0.38 12.32-2.44 18.03 -1.34 2.6-3.34 5.71-6.23 6.89 -4.68 1.78-10.46 0.89-14.02-2.67 -6.96-7.27-10.24-18.55-5.78-28.04h8.68c-1.48 3.72-2.51 8.98-1.11 13.36 0.74 1.85 1.63 4.23 3.79 4.89 7.12 0.26 2.3-9.94 4-14.69 0.67-3.56 2.59-7.27 6.22-8.9C397.25 199.42 405.05 203.13 408.16 208.92"/><path id="COFFEE" fill="#FFFFFF" d="M178.53 343.76c0.89 2.15 2.19 3.85 2.74 7.07 -2.37 1.49-5.37 2.72-8.08 4.05 -0.66-4.9-4.97-9.65-9.78-10.91 -4-0.99-8.38 0.89-11.34 4.45 -2.45 2.89-3.2 7.05-2.45 10.68 1.93 5.03 7.27 8.84 12.68 8.84l1.56 0.05c-1.48 3.56-2.44 5.35-4 8.03 -8.98-0.3-18.03-5.57-21.37-14.25 -2.89-7.04-1.63-16.16 2.9-22.03 5.49-6.97 14.24-8.9 22.7-7.11C169.77 334.19 175.11 338.49 178.53 343.76M351.41 339.09l0.56 0.55 -13.35 12.43 4.45 5.37c3.78-2.96 7.86-6.12 11.91-9.9 2.07 1.74 3.75 3.78 5.71 6.09 -3.99 3.81-8.16 6.41-11.64 10.05 1.48 1.86 2.63 3.97 4.89 6.19l14.4-11.87 6.15 6.35c-8.16 7.75-17.05 15.73-25.51 21.91l-25.15-32.49c8.02-6.68 14.76-12.76 21.81-19.81C347.79 335.38 349.34 337.23 351.41 339.09M209.9 366.46c-4.6-6.9-12.76-10.98-21.58-10.46 -8.53 1.04-16.84 7.27-19.14 15.8 -2.59 7.86 0.23 15.94 5.34 21.59 5.79 5.56 13.36 8.15 21.36 6.89 6.61-1.48 12.65-5.75 15.8-12.46C214.5 381.21 214.43 372.24 209.9 366.46zM196.1 387.59c-2.59 2.08-5.99 3.38-9.4 2.12 -2.14-1.04-4.8-2.94-5.4-5.24 -1.63-5.93 1.08-11.49 5.23-15.57 2.52-2.08 6.16-3.26 9.34-1.78 1.93 0.59 4.08 2.74 4.68 4.68C203.07 377.66 200.18 383.44 196.1 387.59zM289.12 381.21c-6.24 0.9-12.2 1.64-18.14 2.61 0.6 2.93 0.34 4.89 0.78 7.11 5.57-0.11 10.42-1.1 15.62-1.77l1.52 9.52c-5.08 0.93-10.62 1.78-15.95 2.3 0.15 4.3 0.72 9.56 0.65 14.31 -4.37 0.67-9.1 1.15-13.62 0.85l-2.67-40.57 -0.03-0.85c10.04-0.97 20.25-2.27 29.84-3.82C287.52 373.95 288.45 377.46 289.12 381.21M323.15 362.98l0.38 0.69 -16.3 8.17 2.76 6.41c4.97-1.89 9.26-3.66 14.2-6.16 1.51 2.26 2.54 4.68 3.78 7.44 -4.48 2.39-9.12 4.24-14 6.39 0.91 2.19 1.36 3.8 2.96 7.31l17.15-7.36 4.13 7.83c-10 5.14-20.79 10.3-30.64 13.87l-15.02-38.23c9.57-4.16 17.75-8.11 26.49-12.89C320.71 358.4 321.68 360.62 323.15 362.98M251.19 385.82c-6.2-1.04-12.12-2.15-18.07-3.04 -0.33 2.97-1.17 4.77-1.42 7.02 5.33 1.59 10.26 2.12 15.41 3.07l-1.45 9.54c-5.12-0.66-10.65-1.54-15.9-2.67 -1.16 4.14-2.21 9.33-3.72 13.84 -4.38-0.7-9.02-1.68-13.24-3.35l9.79-39.45 0.23-0.82c9.87 2.13 19.97 3.99 29.59 5.43C251.87 378.42 251.68 382.06 251.19 385.82"/><path id="star" fill="#FFFFFF" d="M125.79 285.24c4.49-0.02 8.81 0.15 13.44 0.04l-10.33 8.63c1 3.63 1.86 7.81 3.12 12.69l-10.24-7.12c-4.31 1.97-6.9 4.38-11.34 6.67l3.56-12.24c-3.38-2.76-7.16-5.39-10.35-8.2 4.66-0.12 8.74 0.07 13.24-0.03 2.08-3.89 3-8.35 4.9-12.24L125.79 285.24"/><path id="star_1_" fill="#FFFFFF" d="M395.38 285.3c4.49-0.02 8.5 0.1 13.44 0.05l-10.31 8.63c1 3.63 1.85 7.81 3.11 12.69l-10.23-7.13c-4.31 1.96-6.9 4.38-11.35 6.68l3.56-12.23c-3.37-2.76-7.16-5.4-10.34-8.22 4.65-0.12 8.73 0.07 13.23-0.02 1.82-4.05 3.12-7.94 4.91-12.24L395.38 285.3"/><path id="inner" fill="#FFFFFF" d="M150.88 256.32c0-58.28 47.25-105.53 105.52-105.53 58.28 0 105.52 47.25 105.52 105.53 0 58.28-47.24 105.52-105.52 105.52C198.13 361.83 150.88 314.59 150.88 256.32"/><path id="inner_artwork" fill="#020202" d="M255.96 192.67c3.49 2.01 7.19 4.6 10.01 7.35l-1.1 1.11c-5.56-0.59-11.42 0.15-16.69 0.23 -0.59-0.59-1.77-1.48-0.67-2.23L255.96 192.67zM354.31 261.76c0.08 2.51 0.31 4.67-0.67 7.24 -10.16 2.89-16.84-7.87-26.7-6.25l1.11 5.58c9.12 0.3 14.82 9.05 24.24 8.67 -1.34 2.67 0.6 9.72-5.33 6.9 -6.16-1.48-10.61-6.9-17.36-6.9 -0.81 1.49-0.3 3.56-0.44 5.33 7.12 1.11 12.24 7.13 19.35 8.24 -0.67 2.45-1.33 5.19-3.34 6.68 -5.79-1.41-10.31-6.61-16.47-6.46l-1.1 5.12c5.86 0.15 9.64 5.33 14.91 6.89 0.15 2.16-1.78 4.09-2.9 6.02 -4.67-1.4-8.23-5.42-13.57-5.12 -0.07-2.01 1.12-4.29 0.67-6.44 -6 1.78-10.02-3.79-14.46-7.13 -0.13-10.94-11.64-18.11-12.25-28.36 -0.12-2.04 0.2-4.22 1.13-6.57 3.79-8.75 2.6-20.11-1.55-28.27 -1.26-2.15-3.49-3.84-5.58-5.11 3.05 6.46 6.76 14.08 4.91 22.02 -0.21 6.13-3.83 12.01-3.87 17.92 -0.01 2.11 0.44 4.21 1.65 6.34 4.82 8.69 13.51 16.91 10.24 27.81 -0.9 3.35-3.57 5.94-4.24 9.34 5.64 4.68 10.98 9.94 18.47 10.24 2.67-1.7 1.19-9.26 6.68-5.78l8.02 4.01c-0.59 2.15-2.38 4.07-4.01 5.55 -3.04-1.48-6.01-3.25-9.8-3.11 -1.12 1.19-2.08 2.52-2 4.22 2.67 0.44 5.12 1.56 7.35 3.13 -1.03 2.23-3.05 3.63-4.9 5.33l-6.22-2.22c-1.04 1.48-3.19 3.05-2.44 4.68 1.4 0.6 2.96 1.41 3.99 2.45 -2.74 2.97-6.22 4.87-9.57 6.89 -2.88-9.42-12.38-16.03-11.57-26.92l-0.44-0.44c-2.23 2.51-1.49 6.53-1.34 9.78 2.67 6.82 9.05 12.1 10.01 19.58 -1.11 1.93-3.63 2.31-5.56 3.13 0.22-13.49-20.24-23.73-7.12-37.38 4.38-6.68 11.71-13.06 9.11-22.26 -2.67-8.89-12.1-14.39-12.02-24.35l0.02-0.78c2.15-10.39 8.68-21.44 3.34-32.49 -1.49-4.44-4.82-9.49-9.34-11.35 6.74 7.72 9.42 20.32 5.56 30.71 -1.94 4.13-4.62 9.06-4.89 13.92h-0.02c-0.14 2.54 0.37 5.06 2.01 7.45 5.12 8.31 14.02 17.44 8.9 28.27 -5.78 8.67-15.87 17.5-10.24 28.92 4.08 6.83 10.39 13.63 8.69 22.02l-6.68 2.22c4.45-15.65-17.35-24.84-8.23-40.49 5.64-8.38 15.72-16.24 10.01-27.36 -3.41-6.89-10.46-10.97-10.24-19.58l0.24-1.45c2.3-12.21 11.58-23.77 5.09-36.83 -1.71-3.85-5.12-7.78-8.9-10.01l-0.23 0.23c7.57 7.34 9.87 19.43 5.79 29.14 -1.9 5.7-6.08 11.37-6.93 17.48 -0.4 2.88-0.06 5.86 1.6 9.01 4.82 7.63 13.27 15.73 8 25.6 -5.56 8.15-14.83 16.08-11.12 26.68 4.08 9.27 12.6 18.11 8 29.61l-6.89 1.56c5.49-11.21-2.74-22.33-7.56-32.05 -5.86-13.94 12.6-20.62 12.89-33.37 -0.07-8.23-8.82-12.9-10.67-20.47 -3.78-3.19-7.71 1.27-12.24 0.44 -3.34 0.67-8.47-4.6-10.47 1.12 -2.38 8.38-13.2 14.53-8.44 24.47 4.53 8.83 15.42 15.29 11.78 26.71 -3.26 10.67-14.02 20.84-7.34 33.15 -2.74-0.89-7.86 0.81-7.79-3.57 -4.23-14.91 13.8-23.59 8.23-38.49 -2.59-9.12-14.39-14.17-11.79-25.14 1.92-9.03 12.06-15.35 10.64-25.25 -0.11-0.83-0.32-1.68-0.61-2.56 -3.78-10.68-11.5-21.36-6.9-33.83 1.26-3.56 3.79-6.6 6-9.78 -7.34 3.93-11.05 12.24-10.89 20.69 -0.32 9.19 6.47 17.07 7.44 25.48 0.38 3.4-0.17 6.87-2.55 10.56 -4.82 6.54-11.12 13.43-8.23 22.03 2.75 8.68 13.57 13.94 12.91 24.03 -0.07 11.94-13.94 19.37-10.01 32.72l-6.9-2.24c-2.74-11.86 9.87-17.93 10.01-28.91 1.78-12.62-14.31-17.31-13.35-29.61 -0.07-9.35 8.16-15.27 11.79-23.13 0.62-1.91 0.83-3.72 0.75-5.46 -0.44-8.69-8.28-15.49-6.98-25.27 0.44-7.19 2.88-13.5 7.56-18.91 -6.45 2.59-9.11 10.02-10.89 16.25 -3.09 9.99 4.29 18.98 5.03 27.93 0.33 3.95-0.64 7.88-4.36 11.9 -5.34 6.3-10.76 14.24-6.9 22.71 4.09 9.34 16.92 16.61 11.35 28.25 -3.04 7.34-10.31 12.9-10.01 21.58 -1.93-0.81-3.92-1.63-5.56-3.11 0-11.05 15.72-17.95 8.23-29.59 -0.66 2.3-0.81 5.42-1.33 8.02 -2.6 6.75-8.16 12.16-10.24 19.14 -3.48-1.34-7.12-4.16-10.01-7.13l4.01-2.45c-0.44-1.49-1.63-2.74-2.66-4.01 -2.6-0.36-4.31 1.34-6.46 2.01 -1.85-1.64-3.64-3.12-5.12-5.12 1.33-3.79 11.73-0.65 6.46-6.89 -3.56-2.22-7.12 0.95-10.24 2.44l-4.22-5.33c3.63-2.22 7.26-5.35 11.78-4.45 1.11 2.01 1.19 4.96 3.34 6.01 7.64-0.15 13.06-5.93 18.91-10.45 -4.08-6.07-7.41-14.46-3.78-21.81 2.9-7.36 10.48-13.56 10.82-21.7 0.08-1.85-0.21-3.8-1.02-5.9 -4-10.31-5.42-24.25 2.22-33.37 -4.15 1.12-6.6 6.29-8.01 10.22 -4.59 10.07 1.22 19.4 1.42 29.05 0.03 1.74-0.11 3.48-0.53 5.23 -3.93 7.94-10.3 14.9-11.34 24.03 -4.52 2.89-8.24 7.94-14.69 6.23 -0.23 1.7 0.29 4.3 0.89 6.23 -5.12-0.22-8.6 3.55-12.91 5.33 -2.29-0.73-2.89-3.7-3.78-5.77 5.04-1.7 8.68-6.75 14.46-6.68 0.67-1.86-0.38-3.57-0.67-5.35 -7.2-3.19-18.61 15.79-19.57-0.67 7.19-0.44 11.79-7.12 18.91-7.79l0.21-5.33c-8.08-0.82-13.28 7.49-21.36 6.67l-1.78-7.12c9.35 0.58 14.92-7.79 23.82-8.24 1.18-1.55 1.33-3.85 1.55-6 -9.72-1.27-16.38 9.5-26.7 6.23 0 0-0.36-4.48-0.55-7.01h0.02c-0.07-0.99-0.14-1.67-0.14-1.67 9.2 3.57 17.28-3.04 25.14-6.45 2-0.6 5.12 0.44 6.02-1.78 -0.08-1.7 3.04-3.7 0.44-4.89 -11.5-1.56-19.14 12.31-30.93 6l-0.88-1.78c2.45-33.52 21.36-65.93 52.73-81.87 12.7-7.26 28.49-10.96 44.41-11.09 19.21-0.16 38.62 4.88 53.06 15.1 14.02 8.6 27.44 22.77 34.72 37.17 6.96 12.61 10.16 26.75 11.12 41.81 -12.17 9.19-20.33-8.66-32.72-4.66 0.67 1.93 1.04 3.93 2.45 5.56 10.98-0.08 18.54 11.42 30.03 6.89L354.31 261.76zM214.56 220.48c-7.71-5.04-17.49-0.29-24.69 2.45 -0.67-6.75-3.41-12.9-9.13-17.35 -0.55-0.28-1.32-0.86-2.01-0.9 -0.41-0.03-0.81 0.14-1.11 0.67 2.59 15.94-7.77 27.07-15.12 39.16 2.45 2 6.38 1.7 9.34 1.11 7.79-3.11 15.2-8.53 24.47-6.68 2.74-4.67 7.35-9.2 11.13-12.91C209.75 224.05 212.92 222.78 214.56 220.48zM238.15 230.5c-0.15 0.96 0.07 2.67 1.55 2.01 2.3-3.19 6.38-0.67 8.9-0.44v-0.9c-1.38-2.17-4.23-3.26-7.12-3.15 -0.67 0.02-1.35 0.12-2 0.27C238.53 228.5 237.85 229.38 238.15 230.5zM274.42 220.94c-2.07-4.6-6.82-6.46-11.13-7.57 -2.11-0.26-4.3-0.44-6.48-0.46 -0.41 0-0.81-0.01-1.22 0 -6.08 0.12-11.89 1.68-15.44 6.69 -0.51 1.41-2.75 3.4-0.67 4.66 4.67-0.3 10-0.88 13.12 3.13 0 3.57 2.3 8.31-1.55 10.01 -3.19-2.96-6.98 1.26-10.45-1.11 -1.63-0.97-2.67 0.16-3.34 1.57 -0.97 9.19 3.85 19.34 12.45 24.46 3.49 1.26 8.17 2.45 11.81 0.67 8.75-4.07 12.38-13.41 14.01-22.02 -0.22-1.64-0.14-4.83-2.44-4.9 -2.59 1.64-6.38 0.67-9.13 0 -1.63 0.53-1.7 2.9-3.55 3.35l-1.12-0.9c-0.97-4.07-1.56-9.86 2.23-12.68 4.23-1.71 9.2-2.45 13.57-1.11C275.91 223.31 274.65 222.2 274.42 220.94zM269.95 228.25c-0.3 0.01-0.58 0.02-0.87 0.03 -1.55 1.04-6.08 0.29-4.45 3.78 2.82-2.23 6.75-0.67 9.57 0.44 1.04-0.52 0.82-1.56 0.88-2.45C274.18 228.37 272.02 228.21 269.95 228.25zM302.24 196.9c-5.49-0.29-10.09 2.82-15.13 4.24 -0.44-4.29 2.82-8.83 3.56-13.13 -8.15 0.52-14.61 5.43-21.36 9.36 -1.56-3.77-3.13-7.56-4.68-11.35l8.9-8.46 0.23-1.11 -12.02-0.67c-2.07-3.63-2.89-8-5.33-11.33 -2 3.78-3.35 7.78-5.35 11.56l-12.01 0.67v0.88l9.11 8.23c-1.12 4.23-2.15 8.83-4.89 12.02 -5.34-3.2-10.6-6.68-16.46-8.9 -1.41-0.45-3.42-1.19-4.68-0.23 1.85 4.08 4.44 8.47 4.01 12.93 -2.45-0.45-4.37-2.02-6.68-2.68 -2.75-0.75-6.01-2.22-8.69-1.32 4.45 6.23 8.08 12.74 9.34 20.24 14.77-7.13 31.99-11.05 49.86-8 8.38 1.33 16.08 4.75 23.58 7.56C293.85 209.52 298.83 203.2 302.24 196.9zM327.6 239.62c7.56 2 15.14 10.24 23.15 4.89 -6.97-11.57-17.35-22.25-14.46-37.38 0.3-1.03-0.36-2.08-1.33-2.22 -4.52 1.85-8.02 6.3-9.81 10.68 -0.73 2.59-1.17 5.34-2.21 7.79 -5.42-2.82-11.2-5.55-17.8-4.89 -2.38 0.3-5.79 0.45-6.23 2.9 7.49 4 13.65 10.68 18.24 17.8C320.34 238.66 324.26 239.11 327.6 239.62zM248.39 250.08l0.21 1.34c2.9 1.93 3.79 5.2 7.8 4.91 3.56 0.21 6.23-3.12 8-5.79C259.59 249.87 253.73 250.9 248.39 250.08zM252.4 244.07c0.14 0.59-0.37 1.48 0.44 1.78 2.37-0.52 6.67 1.26 8-1.56 -0.92-1.03-2.44-1.51-4.02-1.51C255.23 242.79 253.59 243.26 252.4 244.07z"/></svg>