<svg version="1.1" xmlns="http://www.w3.org/2000/svg" x="0" y="0" width="512" height="512" viewBox="0 0 512 512" enable-background="new 0 0 512 512" xml:space="preserve"><ellipse fill="#E63527" cx="256" cy="256" rx="182.5" ry="185.5"/><path fill="#FFFFFF" d="M174.2 266c-1.8 0-3.2 0-4.8 0 0-6.3 0-12.5 0-19 1.4 0 2.9 0 4.5 0 0.1 0.5 0.3 1.1 0.5 1.8 4.2-3.5 8.1-3.1 11.3 0.3 2.1-0.9 4-2.3 6-2.5 4.5-0.5 7.2 1.7 7.8 6.2 0.4 3.4 0.2 6.8 0.2 10.2 0 0.9 0 1.9 0 2.9 -1.7 0-3.1 0-4.9 0 0-2.5 0-4.9 0-7.3 0-1.3 0-2.5-0.2-3.7 -0.3-2.3-1.6-3.5-3.5-3.6 -2.1-0.1-3.6 1.2-3.9 3.4 -0.3 2-0.2 4.1-0.2 6.2 0 1.6 0 3.2 0 5 -1.6 0-3.1 0-5 0 0-2.2 0-4.5 0-6.7 0-1.4 0.1-2.8-0.1-4.2 -0.2-2.2-1.6-3.6-3.5-3.7 -2.2-0.1-3.9 1.2-4.1 3.5 -0.2 2.5-0.1 5-0.2 7.5C174.1 263.4 174.2 264.6 174.2 266zM258.6 247.1c4.2-0.6 4.6-0.5 5.2 1.6 2.3-2.1 5.2-2.8 8-2 1.9 0.6 3.8 1.7 5.1 3.2 3.3 3.6 3 9.9-0.2 13.4 -3.3 3.7-7.9 4.1-13.2 0.9 0 3.7 0 7.3 0 11 -1.7 0-3.3 0-4.9 0C258.6 265.8 258.6 256.5 258.6 247.1zM273.9 256.5c0-3-2.1-5.3-5-5.3 -3-0.1-5.3 2.3-5.3 5.3 0 3 2.2 5.2 5.2 5.2C271.7 261.7 273.9 259.6 273.9 256.5zM138.9 248.5c1-3.2 3.4-1.1 5.3-1.9 0 6.6 0 12.8 0 19 -3.4 0.8-4.5 0.6-5.3-1.3 -5.4 3-10.3 2.4-13.6-1.7 -3-3.8-2.8-9.7 0.6-13.2C128.7 246.4 134.5 245 138.9 248.5zM133.8 261.6c3.1 0 5.4-2.2 5.4-5.2 0-2.9-2.2-5.1-5.2-5.2 -3-0.1-5.5 2.2-5.6 5.1C128.3 259.2 130.8 261.6 133.8 261.6zM298.2 248.4c0.7-1.7 1.7-2 5.2-1.2 0 6.2 0 12.4 0 18.6 -3.7 0.8-4.5 0.5-5.1-1.3 -5.5 2.9-10.3 2.4-13.5-1.5 -3-3.7-3-9.6 0.1-13.1C288.3 245.9 293.1 245.4 298.2 248.4zM293.2 261.6c3.1 0 5.4-2.2 5.4-5.2 0-2.9-2.3-5.1-5.2-5.2 -3-0.1-5.5 2.2-5.5 5.1C287.8 259.3 290.1 261.6 293.2 261.6zM406.1 258.1c-4.9 0-9.6 0-14.5 0 0.1 2.2 1.3 3.2 2.9 3.7 2.8 0.9 5.2 0.4 7.3-2 1.2 0.7 2.4 1.3 3.6 1.9 -1.4 4.2-8.7 5.8-13 3.9 -4.7-2-7-7.2-5.5-12.3 1.5-5 6.4-7.7 11.9-6.7C403.7 247.5 406.6 251.9 406.1 258.1zM401.1 254.7c-0.6-2.8-2.4-4.2-5-4.1 -2.6 0.1-4.3 1.6-4.6 4.1C394.7 254.7 397.9 254.7 401.1 254.7zM98.7 259.8c1.3 0.7 2.4 1.3 3.4 1.8 -0.5 3.4-6.7 5.7-11.5 4.4 -5.3-1.4-8.4-6.5-7.2-12 1.2-5.4 6.1-8.5 11.9-7.6 5.2 0.8 8.2 5.3 7.6 11.5 -4.7 0-9.5 0-14.5 0 0.1 2.3 1.4 3.3 2.9 3.8C94.2 262.8 96.6 262.2 98.7 259.8zM88.4 254.6c3.4 0 6.5 0 9.7 0 -0.6-2.7-2.2-4-4.7-4C90.8 250.6 89.1 251.9 88.4 254.6zM372.8 246.5c6 0 10.1 4.1 10.1 9.9 0 5.8-4.3 10-10.1 10 -5.8 0-10.2-4.3-10.1-10C362.6 250.6 366.8 246.5 372.8 246.5zM372.7 261.5c2.9 0 5.2-2.3 5.2-5.2 0-2.9-2.3-5.1-5.3-5.1 -2.8 0-5 2.2-5 5.1C367.6 259.3 369.8 261.5 372.7 261.5zM223 265.8c-4.2 0.6-4.6 0.5-5.1-1.2 -1.8 0.6-3.6 1.5-5.5 1.6 -3.9 0.2-6.9-2.3-7.2-6.2 -0.3-3.4-0.1-6.9-0.1-10.4 0-0.9 0-1.7 0-2.8 1.7 0 3.1 0 5 0 0 2 0 4 0 6.1 0 1.7 0 3.4 0.2 5.1 0.3 2.3 1.8 3.5 3.8 3.5 2.2-0.1 3.8-1.4 3.9-3.7 0.1-3.1 0.1-6.2 0.1-9.3 0-0.5 0.1-1 0.2-1.6 1.6 0 3.1 0 4.8 0C223 253.2 223 259.5 223 265.8zM428.8 265.9c-1.8 0-3.3 0-5.1 0 0-3.6 0.2-7.2-0.1-10.7 -0.1-1.3-1-3-2.1-3.5 -1.1-0.5-3.1-0.4-4.1 0.4 -1 0.8-1.6 2.6-1.8 4 -0.3 2.3-0.1 4.7-0.1 7.1 0 0.8 0 1.6 0 2.6 -1.6 0-3.1 0-4.8 0 0-6.2 0-12.4 0-18.8 1.5 0 2.9 0 4.5 0 0.1 0.5 0.3 1.1 0.5 1.8 0.2-0.1 0.5-0.1 0.6-0.2 2.5-2.4 5.5-2.8 8.6-1.4 3 1.4 3.7 4.2 3.7 7.2C428.8 258.1 428.8 261.9 428.8 265.9zM242.8 252.2c-1.9 0.1-3.9 0.8-5.6-1.2 -0.4-0.5-1.7-0.6-2.5-0.4 -0.6 0.2-1.3 0.9-1.5 1.6 -0.1 0.4 0.7 1.3 1.3 1.5 1.4 0.5 2.8 0.8 4.2 1.2 3.1 0.9 4.8 2.8 4.8 5.6 0 2.6-1.7 4.7-4.8 5.5 -2.9 0.8-5.7 0.7-8.3-1.1 -1.6-1.1-2.6-2.6-2.6-4.7 2 0 4.1-0.9 5.6 1.3 0.4 0.6 1.7 1 2.4 0.8 1-0.3 1.8-1.1 2.7-1.8 -0.7-0.6-1.3-1.5-2.1-1.9 -1.2-0.6-2.5-0.7-3.8-1.1 -3.2-1.1-4.4-2.6-4.5-5.3 0-2.5 1.8-4.6 4.6-5.5 4.6-1.5 9.3 0.7 10 4.8C242.9 251.7 242.8 251.9 242.8 252.2zM148.8 260.3c2.1 0 4.1-0.9 5.7 1.3 0.4 0.6 1.7 1 2.4 0.8 1-0.2 1.8-1.1 2.7-1.7 -0.7-0.7-1.2-1.5-2-1.9 -1.2-0.6-2.5-0.7-3.8-1.1 -3.2-1.1-4.4-2.6-4.4-5.3 0-2.5 1.7-4.7 4.6-5.5 2.6-0.7 5.1-0.6 7.5 0.8 1.6 1 2.5 2.4 2.5 4.5 -2 0-3.9 0.8-5.6-1.1 -0.4-0.5-1.8-0.6-2.7-0.4 -0.6 0.1-1.3 0.9-1.4 1.4 -0.1 0.5 0.6 1.4 1.2 1.6 1.3 0.6 2.8 0.8 4.2 1.2 3.2 0.9 5 3 4.9 5.7 -0.1 2.6-1.8 4.6-5 5.5 -2.7 0.7-5.4 0.6-7.9-0.9C150 264 149 262.5 148.8 260.3zM307.1 247.1c0.3-0.2 0.4-0.2 0.5-0.2 4.7-0.4 4.7-0.4 6.4 3.9 1.1 2.8 2.2 5.6 3.5 8.8 1.4-3.5 2.8-6.6 3.8-9.7 0.8-2.4 2-3.6 4.6-3.1 0.6 0.1 1.2 0.1 2 0.1 -0.8 1.8-1.5 3.5-2.2 5.2 -1.8 4.2-3.6 8.4-5.3 12.6 -0.5 1.2-1.3 1.4-2.4 1.3 -1.1-0.1-2.5 0.6-3.2-1.1C312.2 259 309.7 253.1 307.1 247.1zM353 246.9c1.8 0 3.2 0 4.5 0 0.2 0.2 0.3 0.3 0.3 0.4 0 7.4 0.2 14.7 0 22.1 -0.1 4.1-2.7 6.2-6.8 6.2 -1.1 0-2.2 0-3.4 0 0-1.5 0-2.8 0-4.1 0.2-0.1 0.3-0.3 0.4-0.3 4.6-0.5 4.9-0.9 5-5.7 0-5.4 0-10.8 0-16.1C353 248.7 353 247.9 353 246.9zM346.8 265.9c-1.7 0-3.1 0-4.7 0 0-9.9 0-19.6 0-29.4 1.5 0 3 0 4.7 0C346.8 246.3 346.8 256 346.8 265.9zM120.6 251.1c-0.4 0.1-0.5 0.2-0.7 0.2 -5.3-0.3-7 1.2-7.2 6.5 -0.1 2.6 0 5.3 0 8.1 -1.8 0-3.3 0-5 0 0-6.3 0-12.5 0-18.9 1.6 0 3.1 0 4.8 0 0.1 0.9 0.2 1.8 0.4 2.9 1.6-1.9 3-3.6 5.6-3.4 2.7 0.2 3 0.4 2.4 3.1C120.8 250.1 120.7 250.6 120.6 251.1zM336.1 246.8c0 6.5 0 12.7 0 19.1 -1.6 0-3.1 0-5 0 0-2.6 0-5.2 0-7.7 0-3 0.1-6 0-9.1 -0.1-1.9 0.5-2.6 2.4-2.3C334.2 246.9 335 246.8 336.1 246.8zM355.4 236.3c1.8 0 3.2 1.2 3.3 2.8 0.1 1.6-1.3 3-3.1 3.1 -1.9 0.1-3.4-1.3-3.4-3C352.2 237.7 353.6 236.4 355.4 236.3zM333.6 236.3c1.9 0 3.2 1.2 3.2 3 0 1.7-1.3 3-3.1 3 -1.8 0-3.1-1.3-3.1-3C330.5 237.6 331.8 236.4 333.6 236.3zM98.1 254.6c-3.2 0-6.3 0-9.7 0"/></svg>