<svg version="1.1" xmlns="http://www.w3.org/2000/svg" x="0" y="0" width="512" height="512" viewBox="0 0 512 512" enable-background="new 0 0 512 512" xml:space="preserve"><ellipse fill="#FFFFFF" cx="256.3" cy="255.5" rx="182.5" ry="185.5"/><path fill-rule="evenodd" clip-rule="evenodd" fill="#DDE06D" d="M253.4 176c-0.3 0.6 0.3 0.7 0.6 1 6.4 5.3 10.3 12.2 12.4 20.2 2 7.6 2.3 15.2 2.1 22.9 0 0.3-0.1 0.6-0.1 0.9 0 0.1-0.1 0.2-0.2 0.3 -1.1-0.5-0.8-1.5-0.8-2.4 0-3.7 0-7.5-0.9-11.1 -2-8.4-6-15.5-12.8-20.9 -1.7-1.4-2.1-3-1.7-5 0.4-1.9 1.1-3.9 0.4-5.9C252.7 176 253.1 176 253.4 176zM254.9 272.3c-54.4 0-108.8 0-163.2 0 -0.7 0-2.2 0.7-2.1-0.8 0-1.2 1.4-0.7 2.1-0.7 108.9 0 217.8 0 326.6 0 0.8 0 2.4-0.8 2.4 0.7 0 1.5-1.6 0.7-2.3 0.7C363.8 272.3 309.4 272.3 254.9 272.3z"/><path fill="#AE1D46" d="M88.6 225.5c4.8 0 9.6 0 14.6 0 0 0.8 0 1.5 0 2.1 -0.1 0.1-0.2 0.2-0.3 0.2 -3 0.6-3.2 0.9-2 3.7 2.5 6.1 5 12.2 7.5 18.3 0.2 0.5 0.5 1.1 0.9 1.9 1.8-4.5 3.4-8.6 5-12.7 1-2.7 2.1-5.3 3.1-8 0.5-1.4 0.8-2.7-1.4-3.2 -0.5-0.1-0.7-1.3-1.2-2.3 3.7 0 6.8 0 10 0 0.3 1.2 0.3 2-1.2 2.7 -0.9 0.4-1.6 1.8-2 2.9 -3 7.5-6 15.1-9 22.6 -0.8 2.1-1.8 4.2-2.5 6.3 -0.6 1.7-1.9 1.2-3 1.3 -1.1 0.1-1.9 0-2.4-1.3 -3.8-9.3-7.6-18.5-11.5-27.8 -0.4-1-0.9-1.9-1.4-2.7 -0.8-1.1-1.8-1.8-3.3-1.4C88.6 227.2 88.6 226.4 88.6 225.5zM420.9 305.7c-3.1 7.7-12.5 10.6-19.7 6 -3.7-2.4-3.6-6.3 0.3-8.4 1.1-0.6 2.2-0.9 3.4-1.4 -7-4.4-6.4-16.6 2.9-20 3.7-1.3 7.5-1 11.2 0.3 0.4 0.2 0.9 0.8 1 1.3 0.2 0.9 0 1.9 0 3.4 -0.8-0.4-1.5-0.5-1.7-0.9 -3-4.4-9.6-4.1-12.2 0.7 -3.5 6.5 0.9 14.4 8.1 14.3 1 0 2.2-0.2 2.9-0.8 1.2-0.9 2.3-1.2 3.7-1.2C420.9 301.2 420.9 303.4 420.9 305.7zM416.4 303.5c-2 0-3.8-0.2-5.6 0.1 -2.2 0.4-4.5 1-6.5 2 -1.7 0.9-1.6 2.9-0.2 4.1 2 1.8 6.8 2.1 9.6 0.6C416.1 309 416.9 307.1 416.4 303.5zM241.6 260.7c-5.3 0-10.4 0-15.7 0 0-0.7 0-1.3 0-2 0.1-0.1 0.2-0.2 0.3-0.2 3.8-0.7 3.9-0.9 3.9-4.8 0-5.8 0-11.5 0-17.3 0-5.9-2.7-7.8-8.4-5.9 -0.2 0.1-0.5 0.2-0.7 0.2 -4.7 1.9-4.9 2.1-4.9 7.1 0 5.3 0 10.7 0 16 0 3.9 0 3.9 3.7 4.7 0 0.3 0.1 0.6 0.1 1 0 0.3-0.1 0.6-0.1 1 -5.3 0-10.5 0-15.8 0 0-0.7 0-1.4 0-2 4.3-1 4.3-1 4.3-5.5 0-6.7 0-13.4 0-20 0-4.4 0-4.4-4.3-5.5 0-0.6 0-1.3 0-2.1 3.1 0 6.3-0.3 9.3 0.2 1.2 0.2 2.2 2.1 3.3 3.2 2.4-1.1 5.2-2.6 8.2-3.5 3.9-1.2 7.8-1.2 10.8 2.1 0.6 0.7 1.1 1.6 1.7 2.5 3.7-2.9 7.8-4.6 12.4-5.1 5.5-0.5 9.1 2.3 9.3 7.8 0.3 6.7 0.2 13.5 0.2 20.2 0 0.8 0 1.6 0 2.4 0 1.9 0.7 3.1 2.8 3 0.4 0 0.7 0.1 1.1 0.2 0 0.7 0 1.4 0 2.1 -5.3 0-10.4 0-15.7 0 0-0.7 0-1.3 0-2 0.1-0.1 0.2-0.2 0.3-0.2 3.8-0.7 3.9-0.9 3.9-4.8 0-5.2 0-10.4 0-15.6 0-1.4-0.1-2.8-0.3-4.2 -0.4-2.9-2.3-4.6-5.1-3.9 -2.7 0.7-5.3 2-7.9 3.2 -0.4 0.2-0.7 1.1-0.7 1.7 0 6.7-0.1 13.5 0 20.2 0 2.5 0.3 2.8 2.8 3.2C242.2 258.6 241.7 259.6 241.6 260.7zM189.2 258c-3.4 1.3-6.5 2.8-9.8 3.6 -3.4 0.8-6.5-0.3-8.6-3.2 -2.2-3-2.4-6.2-0.6-9.5 2.1-3.7 5.7-5.5 9.6-6.4 2.9-0.7 5.9-0.9 9-1.3 0-3.5 0.1-7.1 0-10.7 -0.1-1.6-1.2-2.4-2.9-2.4 -4.5-0.1-7.1 1.8-8.5 6.1 -0.2 0.5-0.7 1-1.2 1.3 -1 0.5-2 0.9-3.1 1 -0.9 0.1-2.2 0.1-2.6-0.4 -0.4-0.6-0.2-1.9 0.1-2.7 0.4-1 1-2 1.8-2.7 5.2-4.3 11.2-6.2 17.9-5.5 4.1 0.4 6.2 3 6.3 7.3 0 6.7 0 13.5 0 20.2 0 0.9 0.1 1.8 0.3 2.7 0.5 2.3 1.5 2.8 3.7 1.9 0.3-0.1 0.7-0.3 1.1-0.5 0.4 0.6 0.8 1.2 1.2 1.8C199.6 262.2 191.2 263.7 189.2 258zM189 244.7c-1.5 0.1-2.7 0.2-4 0.3 -0.8 0.1-1.7 0.2-2.5 0.5 -1.2 0.5-2.5 1-3.6 1.7 -2.1 1.5-2.7 4.3-1.7 6.6 0.9 2.2 2.9 3.4 5.6 2.7 2-0.5 3.9-1.7 5.7-2.7 0.3-0.1 0.5-0.6 0.5-0.9C189 250.3 189 247.6 189 244.7zM165.8 256.1c0.3 0.9 0.5 1.7 0.8 2.6 -3.9 1.8-7.7 3.2-11.8 3.5 -4.9 0.4-7.7-2.7-7.8-8.5 0-7.5 0-15.1 0-22.6 0-0.7 0-1.3 0-2.2 -1.5 0-2.8 0-4.2 0 -0.4-1.6-0.6-2.7 1.5-3.2 2.6-0.7 4.3-2.7 5.1-5.1 0.7-2.2 1.9-2.7 3.9-2.4 0.4 0.1 0.8 0.1 1.4 0.1 0 2 0.1 3.9 0 5.7 0 1.1 0.4 1.5 1.5 1.5 3.1 0 6.2 0 9.4 0 0 1.2 0 2.1 0 3.3 -3.5 0-7.1 0-10.8 0 -0.1 0.9-0.1 1.4-0.1 2 0 7 0 14 0 20.9 0 4.5 1.7 6 6.2 5.4C162.5 257 164 256.5 165.8 256.1zM141.4 227.7c-4.2 0.8-4.2 0.9-4.2 5.1 0 6.9 0 13.7 0 20.6 0 4.3 0 4.3 3.9 5.3 0 0.6 0 1.3 0 2 -5.2 0-10.3 0-15.6 0 0-0.7-0.1-1.3-0.1-1.8 0.2-0.2 0.3-0.3 0.4-0.3 3.1-0.4 3.9-0.2 3.9-4.8 0-6.9 0-13.7 0-20.6 0-4.4 0-4.4-4.2-5.5 0-0.6 0-1.3 0-2 5.3 0 10.6 0 16 0C141.4 226.3 141.4 227 141.4 227.7zM377.2 288.2c0 3.8-0.1 7.4 0.1 11 0 0.6 0.9 1.3 1.4 1.9 0.3 0.4 0.7 0.7 1.1 1.1 -0.1 0.1-0.2 0.3-0.4 0.4 -2.5 0-5 0-8 0 0.5-0.7 0.7-1.2 1.1-1.4 1.2-0.4 1.7-1.2 1.7-2.3 0-4.5 0-8.9 0-13.4 0-1.4-0.6-2.3-2.1-2.6 -0.4-0.1-0.7-0.6-1.1-1 0.1-0.2 0.2-0.3 0.3-0.5 1.7 0 3.4-0.1 5.1 0.1 0.6 0 1.1 0.6 1.6 1 4 4.2 7.9 8.5 12.3 13.2 0-1.7 0-2.9 0-4 0-1.9 0-3.8 0-5.7 0-1.4 0-2.7-1.8-3.1 -0.3-0.1-0.4-0.8-0.7-1.3 2.8 0 5.2 0 8.1 0 -0.4 0.6-0.6 1.3-1 1.4 -1.6 0.4-1.7 1.6-1.7 2.9 0 5 0 10 0 15.1 0 0.7-0.4 1.4-0.6 2 -0.8-0.3-1.8-0.4-2.4-0.9C385.8 297.5 381.6 293 377.2 288.2zM345.5 293.7c2.3 2.6 4.3 5.6 7.7 7.3 0.4 0.2 0.7 0.7 1 1.1 -0.5 0.3-1 0.7-1.4 0.7 -3.2 0-5.7-1.5-8-3.7 -1.2-1.2-2.3-2.6-3.5-3.8 -0.5-0.5-1.3-0.7-2.3-1.3 0 2.3-0.1 4.1 0.1 5.8 0 0.5 0.8 0.9 1.2 1.3 0.3 0.3 0.7 0.6 1.1 1 -0.1 0.1-0.2 0.3-0.3 0.4 -3 0-6.1 0-9.8 0 0.6-0.7 0.9-1.2 1.3-1.3 1.3-0.2 1.8-0.9 1.8-2.1 0-4.7 0-9.4 0-14.1 0-1.2-0.6-1.9-1.8-2.2 -0.4-0.1-0.7-0.7-1.3-1.2 4.5 0 8.4-0.2 12.3 0.1 2.8 0.2 5.1 1.6 5.7 4.6 0.6 2.6-0.1 5.3-3.4 6.9C345.7 293.3 345.6 293.5 345.5 293.7zM339 292.4c2.3 0.1 4.1-0.5 5.2-2.4 0.9-1.5 0.6-3.9-0.6-5.3 -1.2-1.4-2.8-1.8-4.6-1.3C339 286.4 339 289.4 339 292.4zM287 300.3c0.3 0.4 0.5 0.8 0.8 1.1 -3.5 2.7-6.2 2.5-8.4-0.4 -1.2 0.6-2.5 1.3-3.7 1.8 -3.4 1.3-6.3 0.4-7.6-2.3 -1.3-2.7-0.3-5.8 2.9-7.5 1.6-0.8 3.4-1.2 5.2-1.6 1-0.2 2.1-0.2 3.2-0.3 0-2.1 0.1-4.2-0.1-6.3 -0.1-0.6-1-1.4-1.6-1.5 -2.5-0.4-4.2 0.8-5.1 3.2 -0.4 1.1-2.6 2.3-3.6 1.8 -0.4-0.2-0.9-1-0.7-1.4 0.3-0.9 0.7-1.9 1.4-2.4 3-2.4 6.5-3.6 10.4-3.1 2.7 0.3 3.8 1.6 3.9 4.4 0.1 3.6 0 7.2 0 10.8 0 0.7 0 1.3 0.1 2C284.3 300.9 284.8 301.2 287 300.3zM279.3 293.2c-2.3-0.2-4.3 0.2-6 1.5 -1.2 0.9-1.6 2.3-1 3.8 0.6 1.3 1.7 2.2 3.1 1.7 1.4-0.5 3.2-1.1 3.8-2.3C279.9 296.7 279.3 294.9 279.3 293.2zM313.4 292.3c0.5 6.3 4.9 9.5 10.7 8 0.5-0.1 0.9-0.3 1.4-0.3 0.6 0 1.1 0.2 1.7 0.3 -0.4 0.4-0.6 1.1-1.1 1.2 -2.3 0.6-4.6 1.4-6.9 1.6 -4.4 0.3-7.7-2-9.4-6.2 -2.5-6.1 0.7-13.6 6.5-15.2 6-1.7 11.2 2.4 11 8.6 0 1.4-0.5 1.8-1.9 1.8 -3.4 0-6.7 0.1-10.1 0.1C314.7 292.2 314.1 292.3 313.4 292.3zM313.4 290.1c2.9 0 5.8 0.1 8.6-0.1 0.5 0 1.3-0.8 1.4-1.3 0.4-1.7-1.2-4.3-2.9-5.1 -1.6-0.8-3.7-0.5-5 0.9C314.1 286.1 313.3 287.9 313.4 290.1zM293.2 283.6c-1-0.1-1.8-0.1-3.2-0.2 0.7-0.8 1.1-1.3 1.6-1.7 1-1 2.4-1.7 2.9-2.9 0.7-1.7 1.6-2 3.3-1.6 0 1.3 0 2.6 0 4.2 2.2 0 4.3 0 6.6 0 0 0.8 0.1 1.4 0.1 2.2 -2.2 0-4.3 0-6.6 0 0 5.1-0.1 10.1 0 15 0 1.3 1 2.1 2.4 2 1.3-0.1 2.6-0.4 4.1-0.6 0.7 0.9 0.7 1.6-0.7 2 -1.8 0.5-3.6 1.2-5.5 1.4 -3.4 0.3-4.9-1.1-4.9-4.5 -0.1-3.7 0-7.5 0-11.2C293.2 286.4 293.2 285.1 293.2 283.6zM263.4 287.3c-0.8-0.5-1.5-0.6-1.8-1.1 -2.4-3.7-7.5-4.2-10.8-1.1 -3.9 3.7-3.2 13.6 3.7 15.9 2.7 0.9 5.8-0.3 7.3-2.6 0.3-0.4 0.9-0.7 1.3-1 0.1 0.1 0.3 0.2 0.4 0.3 -0.1 1.1-0.2 2.3-0.4 3.4 0 0.3-0.4 0.7-0.6 0.7 -4.2 1.2-8.4 2-12.6 0.3 -4.6-1.9-6.7-5.9-6.2-11.3 0.3-4.1 3.9-8.4 8.4-9.1 2.9-0.5 6 0 9.1 0.1 1.7 0.1 2.3 1.1 2.2 2.7C263.3 285.3 263.4 286 263.4 287.3zM366.6 302.7c-3.3 0-6 0-8.7 0 -0.4 0-0.7-0.4-1-0.6 0.3-0.2 0.5-0.7 0.8-0.7 1.4-0.2 1.7-1.2 1.7-2.4 0-4.5 0-9.1 0-13.6 0-1.2-0.4-2.1-1.7-2.4 -0.3-0.1-0.5-0.6-0.8-0.9 0.3-0.2 0.7-0.5 1-0.5 2.8 0 5.6 0 8.8 0.4 -0.3 0.4-0.6 1-1 1.1 -1.3 0.3-1.7 1.1-1.7 2.4 0.1 4.6 0 9.2 0 13.8 0 1.2 0.2 2 1.6 2.2C365.8 301.4 366.1 302 366.6 302.7z"/></svg>